# xmcd
#
# Track frame offsets:
#  182
#  10940
#  22562
#  33847
#  51047
#  62017
#  75740
#  89442
#  103847
#  114965
#
# Disc length: 1663 seconds
#
# Revision: 3
# Processed by: cddbd v1.5.1PL0 Copyright (c) Steve Scherf et al.
# Submitted via: Collectorz.com Music Collector 6.9
#
DISCID=69067d0a
DTITLE=Various Artist - Gear-Jammin' Greats
DYEAR=1994
DGENRE=Country
TTITLE0=Dave Dudley - Six Days On The Road
TTITLE1=Joe Stampley - Roll On Big Mama
TTITLE2=Tom T. Hall - Ravishing Ruby
TTITLE3=C.W. Mccall - Convoy
TTITLE4=Del Reeves - Looking At The World Through A Windshield
TTITLE5=Dick Curless - A Tombstone Every Mile
TTITLE6=Jimmy Martin - Widow Maker
TTITLE7=Red Simpson - I'm A Truck
TTITLE8=George Hamilton V - Truck Driving Man
TTITLE9=Dave Dudley - Truck Drivin' Son-Of-A-Gun
EXTD=
EXTT0=
EXTT1=
EXTT2=
EXTT3=
EXTT4=
EXTT5=
EXTT6=
EXTT7=
EXTT8=
EXTT9=
PLAYORDER=
